# Blender v2.82 (sub 7) OBJ File: ''
# www.blender.org
o Cube
v 0.000000 1.000000 -1.000000
v 1.000000 -1.000000 -1.000000
v 0.000000 1.000000 1.000000
v 1.000000 -1.000000 1.000000
v -1.000000 -1.000000 -1.840719
v -1.000000 -1.000000 1.840719
vt 0.375000 0.750000
vt 0.625000 1.000000
vt 0.375000 1.000000
vt 0.625000 0.500000
vt 0.625000 0.750000
vt 0.375000 0.500000
vt 0.375000 0.250000
vn 0.3804 0.1902 0.9050
vn 0.8944 0.4472 0.0000
vn 0.3804 0.1902 -0.9050
s off
f 4/1/1 3/2/1 6/3/1
f 1/4/2 3/5/2 4/1/2
f 1/4/2 4/1/2 2/6/2
f 5/7/3 1/4/3 2/6/3
